<svg id="Ebene_1" data-name="Ebene 1" xmlns="http://www.w3.org/2000/svg" viewBox="0 0 313.98 19.37"><defs><style>.cls-1{fill:#485156;}.cls-2{fill:#63c3d1;}</style></defs><title>Zeichenfläche 1</title><g id="TYPE10Media"><path class="cls-1" d="M28.2.05H0v4.8H10V19.34h8.12V4.85H28.2V.05Zm23.74,0V7.93H39.14V.05H31.35V7.38A4.74,4.74,0,0,0,32.9,11a5.36,5.36,0,0,0,3.82,1.48l5,0v6.94h7.91V12.46h5A4.82,4.82,0,0,0,58.2,11a5.14,5.14,0,0,0,1.56-3.14V.05Zm31.4,7.88H74.86V12.4l11,0a5.92,5.92,0,0,0,4-1.48,4.63,4.63,0,0,0,1.67-3.57V5.09a4.59,4.59,0,0,0-1.67-3.56,5.87,5.87,0,0,0-4-1.48H62.63V19.34h8.15V4.7H83.34V7.93Zm22.71-.42v4.1l15.33.09V7.59l-15.33-.08Zm-4.35,7h13.8l7.21,0,.09,4.83H99.46a5.09,5.09,0,0,1-5.07-5.07V5.12a4.84,4.84,0,0,1,1.5-3.59A4.86,4.86,0,0,1,99.46.05H122.8l-.09,4.8h-21v9.69ZM204,.05H173.23V19.34h7.31V4.85h6.94V19.34h7.31V4.85h7V19.34H209V5.12a4.86,4.86,0,0,0-1.48-3.59A4.82,4.82,0,0,0,204,.05Zm19.74,7.46v4.1l15.34.09V7.59l-15.34-.08Zm-4.34,7h13.8l7.21,0,.09,4.83H217.16a5.07,5.07,0,0,1-5.07-5.07V5.12a4.87,4.87,0,0,1,1.49-3.59A4.9,4.9,0,0,1,217.16.05H240.5l-.09,4.8h-21v9.69Zm45.35,0H251l0-6.61h-7.31l0,11.41H267a4.9,4.9,0,0,0,3.58-1.48,4.85,4.85,0,0,0,1.49-3.59V5.12a4.83,4.83,0,0,0-1.49-3.59A4.9,4.9,0,0,0,267,.05H243.64l0,4.8h21.14v9.69Zm17.9-4,0-2.59V.05h-7.55V19.34h7.55V12.43l0-1.91Zm14.68-1.44h9.3V4.85H293V9.08ZM293,13.18v6.16h-7.37l.06-5.07V5.12a4.84,4.84,0,0,1,1.5-3.59A4.88,4.88,0,0,1,290.74.05l13.59,0,4.53,0a4.9,4.9,0,0,1,3.58,1.48,4.83,4.83,0,0,1,1.49,3.59v9.15l-.06,5.07h-7.24V13.18Z"/><path class="cls-2" d="M133.52.05h-7.61v4.8h5V19.34h7.67V5.12a4.9,4.9,0,0,0-1.48-3.59,4.9,4.9,0,0,0-3.6-1.48Zm31.37,0H146.75a4.94,4.94,0,0,0-3.61,1.48,4.83,4.83,0,0,0-1.49,3.59v9.15a4.85,4.85,0,0,0,1.49,3.59,4.94,4.94,0,0,0,3.61,1.48h18.14a5,5,0,0,0,3.66-1.48,4.86,4.86,0,0,0,1.51-3.59V5.12a4.85,4.85,0,0,0-1.51-3.59A5,5,0,0,0,164.89.05Zm-2.17,14.49H149V4.85h13.77v9.69Z"/></g></svg>