<svg id="Ebene_1" data-name="Ebene 1" xmlns="http://www.w3.org/2000/svg" viewBox="0 0 44.2 19.3"><defs><style>.cls-1{fill:#fff;}</style></defs><title>TYPE10MEDIA_10_white</title><g id="TYPE10Media"><path class="cls-1" d="M7.6,0H0V4.8H5V19.3h7.7V5.1a4.91,4.91,0,0,0-1.5-3.6A4.91,4.91,0,0,0,7.6,0ZM39,0H20.9a4.91,4.91,0,0,0-3.6,1.5,4.91,4.91,0,0,0-1.5,3.6v9.1a5.12,5.12,0,0,0,5.1,5.1H39a5.3,5.3,0,0,0,3.7-1.5,4.91,4.91,0,0,0,1.5-3.6V5.1a4.91,4.91,0,0,0-1.5-3.6A5.3,5.3,0,0,0,39,0ZM36.8,14.5H23.1V4.8H36.9v9.7Z"/></g></svg>