<svg id="Ebene_1" data-name="Ebene 1" xmlns="http://www.w3.org/2000/svg" viewBox="0 0 44.2 19.3"><defs><style>.cls-1{fill:#65c3d2;}</style></defs><title>TYPE10MEDIA_10</title><g id="TYPE10Media"><path class="cls-1" d="M7.65.06H.05v4.8h5v14.5h7.7V5.16a4.91,4.91,0,0,0-1.5-3.6A4.91,4.91,0,0,0,7.65.06Zm31.4,0H21a4.91,4.91,0,0,0-3.6,1.5,4.91,4.91,0,0,0-1.5,3.6v9.1a5.12,5.12,0,0,0,5.1,5.1h18.1a5.3,5.3,0,0,0,3.7-1.5,4.91,4.91,0,0,0,1.5-3.6V5.16a4.91,4.91,0,0,0-1.5-3.6,5.3,5.3,0,0,0-3.7-1.5Zm-2.2,14.5H23.15V4.86H37v9.7Z" transform="translate(-0.05 -0.06)"/></g></svg>