<?xml version="1.0" ?><svg style="enable-background:new 0 0 16 16;" version="1.1" viewBox="0 0 16 16" xml:space="preserve" xmlns="http://www.w3.org/2000/svg" xmlns:xlink="http://www.w3.org/1999/xlink"><style type="text/css">
	.st0{display:none;}
	.st1{display:inline;fill:none;stroke:#000000;stroke-linecap:round;stroke-linejoin:round;stroke-miterlimit:10;}
</style><g class="st0" id="grid"/><g class="st0" id="line"><polyline class="st1" points="0.5,10.5 0.5,15.5 5.5,15.5  "/><line class="st1" x1="6.5" x2="0.5" y1="9.5" y2="15.5"/><polyline class="st1" points="15.5,5.5 15.5,0.5 10.5,0.5  "/><line class="st1" x1="15.5" x2="9.5" y1="0.5" y2="6.5"/></g><g id="line_expanded"><path d="M0.5,10C0.8,10,1,10.2,1,10.5v3.8l5.1-5.1C6.3,9,6.7,9,6.9,9.1s0.2,0.5,0,0.7L1.7,15h3.8C5.8,15,6,15.2,6,15.5   S5.8,16,5.5,16h-5C0.2,16,0,15.8,0,15.5l0-5C0,10.2,0.2,10,0.5,10z"/><path d="M14.3,1h-3.8C10.2,1,10,0.8,10,0.5S10.2,0,10.5,0l5,0C15.8,0,16,0.2,16,0.5v5C16,5.8,15.8,6,15.5,6S15,5.8,15,5.5V1.7   L9.9,6.9C9.8,7,9.6,7,9.5,7S9.2,7,9.1,6.9C9,6.7,9,6.3,9.1,6.1L14.3,1z"/></g></svg>