<?xml version="1.0" ?><svg id="Layer_1" style="enable-background:new 0 0 512 512;" version="1.1" viewBox="0 0 512 512" xml:space="preserve" xmlns="http://www.w3.org/2000/svg" xmlns:xlink="http://www.w3.org/1999/xlink"><style type="text/css">
	.st0{fill:#161616;}
</style><g id="XMLID_86_"><path class="st0" d="M191.4,122C89,122,6,184.5,6,261.5c0,42.5,25.3,80.6,65.2,106.2l-12.3,64.6l83.8-36.2   c15.5,3.2,31.8,4.9,48.7,4.9c102.4,0,185.4-62.4,185.4-139.4C376.8,184.5,293.8,122,191.4,122z" id="XMLID_92_"/><path class="st0" d="M506,219.2c0-77-83-139.4-185.4-139.4c-44.2,0-84.7,11.6-116.6,31   c47.3,2.3,91.5,17.3,125.5,42.9c38,28.6,58.9,66.9,58.9,107.9c0,35.6-15.8,69.1-44.8,96.1c8.8-0.8,17.4-2.1,25.7-3.8l83.8,36.2   l-12.3-64.6C480.7,299.8,506,261.7,506,219.2z" id="XMLID_100_"/></g></svg>